<?xml version="1.0" encoding="UTF-8" standalone="no"?>
<svg
   version="1.0"
   width="2931.8997mm"
   height="408.76501mm"
   id="svg23"
   sodipodi:docname="hereabout.svg"
   inkscape:version="1.3.2 (091e20ef0f, 2023-11-25)"
   xmlns:inkscape="http://www.inkscape.org/namespaces/inkscape"
   xmlns:sodipodi="http://sodipodi.sourceforge.net/DTD/sodipodi-0.dtd"
   xmlns="http://www.w3.org/2000/svg"
   xmlns:svg="http://www.w3.org/2000/svg"
   xmlns:rdf="http://www.w3.org/1999/02/22-rdf-syntax-ns#"
   xmlns:cc="http://creativecommons.org/ns#"
   xmlns:dc="http://purl.org/dc/elements/1.1/">
  <metadata
     id="metadata27">
    <rdf:RDF>
      <cc:Work
         rdf:about="">
        <dc:format>image/svg+xml</dc:format>
        <dc:type
           rdf:resource="http://purl.org/dc/dcmitype/StillImage" />
      </cc:Work>
    </rdf:RDF>
  </metadata>
  <sodipodi:namedview
     pagecolor="#ffffff"
     bordercolor="#666666"
     borderopacity="1"
     objecttolerance="10"
     gridtolerance="10"
     guidetolerance="10"
     inkscape:pageopacity="0"
     inkscape:pageshadow="2"
     inkscape:window-width="2560"
     inkscape:window-height="1362"
     id="namedview25"
     showgrid="false"
     inkscape:zoom="0.16867878"
     inkscape:cx="5611.2571"
     inkscape:cy="527.63009"
     inkscape:window-x="0"
     inkscape:window-y="0"
     inkscape:window-maximized="1"
     inkscape:current-layer="g849"
     inkscape:document-rotation="0"
     fit-margin-top="0"
     fit-margin-left="0"
     fit-margin-right="0"
     fit-margin-bottom="0"
     inkscape:showpageshadow="2"
     inkscape:pagecheckerboard="0"
     inkscape:deskcolor="#d1d1d1"
     inkscape:document-units="mm" />
  <defs
     id="defs3">
    <rect
       x="7.8951797"
       y="219.70602"
       width="263.78641"
       height="218.04358"
       id="rect907" />
    <rect
       x="379.97229"
       y="376.99124"
       width="390.81088"
       height="209.06702"
       id="rect901" />
    <rect
       x="359.69095"
       y="380.09937"
       width="173.07304"
       height="88.070587"
       id="rect895" />
    <rect
       x="341.53369"
       y="193.52544"
       width="468.05035"
       height="188.32076"
       id="rect867" />
    <rect
       x="304.19855"
       y="184.61617"
       width="482.71332"
       height="170.37312"
       id="rect861" />
    <rect
       x="2.123044"
       y="187.75098"
       width="543.80725"
       height="234.40289"
       id="rect855" />
    <rect
       x="501.15872"
       y="230.63916"
       width="124.62257"
       height="60.222534"
       id="rect859" />
    <rect
       x="119.11649"
       y="193.35135"
       width="231.02109"
       height="101.15368"
       id="rect853" />
    <rect
       x="151.87489"
       y="131.7598"
       width="7387.0615"
       height="1722.0387"
       id="rect870" />
    <rect
       x="156.93314"
       y="110.77207"
       width="9885.2461"
       height="2863.4575"
       id="rect864" />
    <rect
       x="107.37031"
       y="162.76981"
       width="10072.174"
       height="2719.3877"
       id="rect858" />
    <rect
       x="85.099625"
       y="109.00106"
       width="9327.6387"
       height="2371.3696"
       id="rect852" />
    <rect
       x="289.84131"
       y="196.06009"
       width="9426.3926"
       height="1888.847"
       id="rect846" />
    <rect
       x="137.26781"
       y="200.91676"
       width="8791.6377"
       height="2291.2129"
       id="rect840" />
    <pattern
       id="EMFhbasepattern"
       patternUnits="userSpaceOnUse"
       width="6"
       height="6"
       x="0"
       y="0" />
  </defs>
  <g
     id="g849"
     style="display:inline"
     inkscape:groupmode="layer"
     inkscape:label="Text"
     transform="translate(2746.21,-476.76078)">
    <g
       aria-label="Locolise"
       transform="matrix(15,0,0,15,-1877.6699,-2418.8295)"
       id="text856"
       style="font-size:144px;line-height:1.25;font-family:monospace;-inkscape-font-specification:'monospace, Normal';white-space:pre;shape-inside:url(#rect858);fill:#00755e;fill-opacity:1;stroke-width:0.0666667;stroke-miterlimit:4;stroke-dasharray:none">
      <g
         aria-label="About"
         transform="translate(-73.044717,-29.553078)"
         id="text865"
         style="font-size:144px;line-height:1.25;font-family:monospace;-inkscape-font-specification:'monospace, Normal';white-space:pre;shape-inside:url(#rect867);fill:#571f4e;fill-opacity:1">
        <g
           aria-label="a"
           transform="translate(-41.117468,-183.02496)"
           id="text899"
           style="font-style:normal;font-variant:normal;font-weight:normal;font-stretch:normal;font-size:144px;line-height:1.25;font-family:'Russo One';-inkscape-font-specification:'Russo One';white-space:pre;shape-inside:url(#rect901);fill:#571f4e;fill-opacity:1">
          <path
             d="m 417.41266,486.93111 q 7.632,0 17.28,-2.88 v -8.64 h -20.88 q -2.16,0 -3.6,1.44 -1.44,1.44 -1.44,3.6 v 1.44 q 0,2.16 1.44,3.6 1.44,1.44 3.6,1.44 z m -26.64,-56.16 q 26.352,-2.88 47.52,-2.88 9.792,0 15.696,5.904 5.904,5.904 5.904,15.696 v 56.16 h -22.32 l -1.44,-7.2 q -6.768,4.464 -13.968,6.624 -7.056,2.016 -11.952,2.016 h -5.04 q -9.792,0 -15.696,-5.904 -5.904,-5.904 -5.904,-15.696 v -6.48 q 0,-9.792 5.904,-15.696 5.904,-5.904 15.696,-5.904 h 29.52 v -5.76 q 0,-2.16 -1.44,-3.6 -1.44,-1.44 -3.6,-1.44 -9.36,0 -20.736,0.864 -11.232,0.864 -18.144,1.296 z"
             style="font-style:normal;font-variant:normal;font-weight:normal;font-stretch:normal;font-size:144px;font-family:'Russo One';-inkscape-font-specification:'Russo One';fill:#1b998b;fill-opacity:1;stroke:#1b9797;stroke-opacity:1;stroke-width:0;stroke-dasharray:none;stroke-linecap:butt;paint-order:normal;stroke-linejoin:bevel"
             id="path913" />
        </g>
        <path
           d="m 479.56876,270.11243 q 0,-2.16 -1.44,-3.6 -1.44,-1.44 -3.6,-1.44 h -3.6 q -6.048,0 -10.512,0.576 -4.32,0.576 -6.768,0.864 v 37.44 h 20.16 q 5.76,0 5.76,-5.76 z m -25.92,-21.6 q 13.968,-2.88 24.48,-2.88 h 5.04 q 9.792,0 15.696,5.904 5.904,5.904 5.904,15.696 v 33.12 q 0,10.8 -6.192,16.992 -6.048,6.048 -16.848,6.048 h -53.28 v -100.8 h 25.2 z"
           style="font-style:normal;font-variant:normal;font-weight:normal;font-stretch:normal;font-family:'Russo One';-inkscape-font-specification:'Russo One';fill:#1b998b;fill-opacity:1;stroke:#1b9797;stroke-opacity:1;stroke-width:0;stroke-dasharray:none;stroke-linecap:butt;paint-order:normal;stroke-linejoin:bevel"
           id="path884" />
        <path
           d="m 643.72849,303.95243 q 7.632,0 17.28,-2.88 v -54 h 25.2 v 76.32 h -22.32 l -1.44,-7.2 q -6.768,4.464 -13.968,6.624 -7.056,2.016 -11.952,2.016 h -6.48 q -9.792,0 -15.696,-5.904 -5.904,-5.904 -5.904,-15.696 v -56.16 h 25.2 v 51.84 q 0,2.16 1.44,3.6 1.44,1.44 3.6,1.44 z"
           style="font-style:normal;font-variant:normal;font-weight:normal;font-stretch:normal;font-family:'Russo One';-inkscape-font-specification:'Russo One';fill:#1b998b;fill-opacity:1;stroke:#1b9797;stroke-opacity:1;stroke-width:0;stroke-dasharray:none;stroke-linecap:butt;paint-order:normal;stroke-linejoin:bevel"
           id="path888" />
        <path
           d="m 753.8884,323.39243 q -13.968,1.44 -27.36,1.44 -9.792,0 -15.696,-5.904 -5.904,-5.904 -5.904,-15.696 v -36.72 h -8.64 v -19.44 h 8.64 l 2.88,-17.28 h 22.32 v 17.28 h 18 v 19.44 h -18 v 33.12 q 0,2.16 1.44,3.6 1.44,1.44 3.6,1.44 h 18.72 z"
           style="font-style:normal;font-variant:normal;font-weight:normal;font-stretch:normal;font-family:'Russo One';-inkscape-font-specification:'Russo One';fill:#1b998b;fill-opacity:1;stroke:#1b9797;stroke-opacity:1;stroke-width:0;stroke-dasharray:none;stroke-linecap:butt;paint-order:normal;stroke-linejoin:bevel"
           id="path890" />
        <text
           xml:space="preserve"
           id="text893"
           style="font-style:normal;font-variant:normal;font-weight:normal;font-stretch:normal;font-size:144px;line-height:1.25;font-family:'Russo One';-inkscape-font-specification:'Russo One';white-space:pre;shape-inside:url(#rect895);display:inline;fill:#571f4e;fill-opacity:1"><tspan
             x="359.69141"
             y="599.19195"
             id="tspan1">a</tspan></text>
      </g>
      <text
         xml:space="preserve"
         id="text859"
         style="font-size:2.13333px;line-height:1.25;font-family:monospace;-inkscape-font-specification:'monospace, Normal';white-space:pre;shape-inside:url(#rect861);display:inline" />
      <g
         aria-label="Here"
         transform="translate(-76.972059,-22.70393)"
         id="text853"
         style="font-style:normal;font-variant:normal;font-weight:normal;font-stretch:normal;font-size:144px;line-height:1.25;font-family:'Russo One';-inkscape-font-specification:'Russo One';white-space:pre;shape-inside:url(#rect855);fill:#03440c;fill-opacity:1">
        <path
           d="M 106.90938,317.7831 H 80.989385 v -41.04 H 44.989384 v 41.04 h -25.92 v -100.8 h 25.92 v 39.6 h 36.000001 v -39.6 h 25.919995 z"
           style="font-style:normal;font-variant:normal;font-weight:normal;font-stretch:normal;font-size:144px;font-family:'Russo One';-inkscape-font-specification:'Russo One';fill:#ea2b1f;fill-opacity:1;stroke:#1b9797;stroke-opacity:1;stroke-width:0;stroke-dasharray:none;stroke-linecap:butt;paint-order:normal;stroke-linejoin:bevel"
           id="path873" />
        <path
           d="m 143.96298,256.64892 q -5.76,0 -5.76,5.76 v 7.92 h 24.48 v -7.92 q 0,-5.76 -5.76,-5.76 z m 41.04,58.32 q -27.792,2.88 -50.4,2.88 -9.792,0 -15.696,-5.904 -5.904,-5.904 -5.904,-15.696 v -34.56 q 0,-10.8 6.048,-16.848 6.192,-6.192 16.992,-6.192 h 28.8 q 10.8,0 16.848,6.192 6.192,6.048 6.192,16.848 v 26.64 h -49.68 v 5.76 q 0,2.16 1.44,3.6 1.44,1.44 3.6,1.44 14.256,0 41.76,-2.16 z"
           style="font-style:normal;font-variant:normal;font-weight:normal;font-stretch:normal;font-size:144px;font-family:'Russo One';-inkscape-font-specification:'Russo One';fill:#ea2b1f;fill-opacity:1;stroke:#1b9797;stroke-opacity:1;stroke-width:0;stroke-dasharray:none;stroke-linecap:butt;paint-order:normal;stroke-linejoin:bevel"
           id="path875" />
        <path
           d="m 244.76276,260.96892 q -9.072,0 -18.72,4.32 v 51.12 h -25.2 v -76.32 h 22.32 l 1.44,9.36 q 12.384,-10.8 25.92,-10.8 h 6.48 v 22.32 z"
           style="font-style:normal;font-variant:normal;font-weight:normal;font-stretch:normal;font-size:144px;font-family:'Russo One';-inkscape-font-specification:'Russo One';fill:#ea2b1f;fill-opacity:1;stroke:#1b9797;stroke-opacity:1;stroke-width:0;stroke-dasharray:none;stroke-linecap:butt;paint-order:normal;stroke-linejoin:bevel"
           id="path877" />
        <path
           d="m 293.72256,256.64892 q -5.76,0 -5.76,5.76 v 7.92 h 24.48 v -7.92 q 0,-5.76 -5.76,-5.76 z m 41.04,58.32 q -27.792,2.88 -50.4,2.88 -9.792,0 -15.696,-5.904 -5.904,-5.904 -5.904,-15.696 v -34.56 q 0,-10.8 6.048,-16.848 6.192,-6.192 16.992,-6.192 h 28.8 q 10.8,0 16.848,6.192 6.192,6.048 6.192,16.848 v 26.64 h -49.68 v 5.76 q 0,2.16 1.44,3.6 1.44,1.44 3.6,1.44 14.256,0 41.76,-2.16 z"
           style="font-style:normal;font-variant:normal;font-weight:normal;font-stretch:normal;font-size:144px;font-family:'Russo One';-inkscape-font-specification:'Russo One';fill:#ea2b1f;fill-opacity:1;stroke:#1b9797;stroke-opacity:1;stroke-width:0;stroke-dasharray:none;stroke-linecap:butt;paint-order:normal;stroke-linejoin:bevel"
           id="path879" />
      </g>
    </g>
    <path
       id="path19"
       style="display:inline;fill:#1b998b;fill-opacity:1;fill-rule:evenodd;stroke:#1b9797;stroke-width:0;stroke-opacity:1;stroke-dasharray:none;stroke-linecap:butt;paint-order:normal;stroke-linejoin:bevel"
       d="m 5370.6406,802.2349 c -163.2208,0.6597 -325.6604,66.7103 -445.0817,196.3386 -229.0842,247.6482 -213.4851,632.731 34.163,860.8794 247.6482,229.1623 632.7311,213.5631 860.8793,-34.0851 229.1623,-247.6481 213.5632,-632.809 -34.0849,-860.9574 C 5668.4964,855.2375 5519.2447,801.6341 5370.6406,802.2349 Z m 288.1125,458.5718 -221.285,272.0631 -216.4481,282.7481 0.9351,-323.6981 -269.0981,-181.3482 355.913,-19.5 z" />
    <text
       xml:space="preserve"
       id="text838"
       style="font-size:144px;line-height:1.25;font-family:monospace;-inkscape-font-specification:'monospace, Normal';white-space:pre;shape-inside:url(#rect840);display:inline" />
    <text
       xml:space="preserve"
       id="text844"
       style="font-style:normal;font-variant:normal;font-weight:normal;font-stretch:normal;font-size:32px;line-height:1.25;font-family:'Russo One';-inkscape-font-specification:'Russo One';white-space:pre;shape-inside:url(#rect846);display:inline" />
    <text
       xml:space="preserve"
       id="text862"
       style="font-size:144px;line-height:1.25;font-family:monospace;-inkscape-font-specification:'monospace, Normal';white-space:pre;shape-inside:url(#rect864);display:inline" />
    <text
       xml:space="preserve"
       id="text868"
       style="font-size:144px;line-height:1.25;font-family:monospace;-inkscape-font-specification:'monospace, Normal';white-space:pre;shape-inside:url(#rect870);display:inline" />
  </g>
</svg>
